<svg width="32" height="32" viewBox="0 0 32 32" fill="none" xmlns="http://www.w3.org/2000/svg">
  <rect width="32" height="32" rx="8" fill="url(#gradient)"/>
  <path d="M16 8C12.6863 8 10 10.6863 10 14C10 17.3137 12.6863 20 16 20C19.3137 20 22 17.3137 22 14C22 10.6863 19.3137 8 16 8Z" fill="white"/>
  <circle cx="14" cy="12" r="1.5" fill="url(#gradient)"/>
  <circle cx="18" cy="12" r="1.5" fill="url(#gradient)"/>
  <path d="M13 16C13 16 14.5 17 16 17C17.5 17 19 16 19 16" stroke="url(#gradient)" stroke-width="1.5" stroke-linecap="round"/>
  <path d="M8 22C8 22 10 24 16 24C22 24 24 22 24 22" stroke="white" stroke-width="2" stroke-linecap="round"/>
  <defs>
    <linearGradient id="gradient" x1="0%" y1="0%" x2="100%" y2="100%">
      <stop offset="0%" style="stop-color:#6366f1"/>
      <stop offset="100%" style="stop-color:#a855f7"/>
    </linearGradient>
  </defs>
</svg>